<svg xmlns="http://www.w3.org/2000/svg" viewBox="0 0 160 160" role="img" aria-labelledby="title desc">
  <title id="title">North Yorkshire Bottled Gas brand mark</title>
  <desc id="desc">Circular mark featuring a stylised flame above an LPG cylinder silhouette.</desc>
  <defs>
    <radialGradient id="glow" cx="50%" cy="35%" r="65%">
      <stop offset="0%" stop-color="#ffb24c" stop-opacity="0.9" />
      <stop offset="70%" stop-color="#1d8fe1" stop-opacity="0.35" />
      <stop offset="100%" stop-color="#0d1524" stop-opacity="0.4" />
    </radialGradient>
    <linearGradient id="flame" x1="0%" y1="0%" x2="100%" y2="100%">
      <stop offset="0%" stop-color="#ffb24c" />
      <stop offset="100%" stop-color="#ff6b3d" />
    </linearGradient>
    <linearGradient id="cylinder" x1="0%" y1="0%" x2="100%" y2="100%">
      <stop offset="0%" stop-color="#4ab2ff" />
      <stop offset="100%" stop-color="#1d8fe1" />
    </linearGradient>
  </defs>
  <circle cx="80" cy="80" r="70" fill="#04070f" />
  <circle cx="80" cy="80" r="68" fill="url(#glow)" />
  <path d="M80 45c12 12 18 24 12 34-4 6-8 9-12 11-4-2-8-5-12-11-6-10 0-22 12-34z" fill="url(#flame)" />
  <rect x="52" y="88" width="56" height="44" rx="18" fill="url(#cylinder)" />
  <rect x="60" y="74" width="40" height="18" rx="9" fill="#2ec4b6" />
  <rect x="72" y="66" width="16" height="14" rx="5" fill="#1d8fe1" />
  <rect x="62" y="102" width="36" height="6" rx="3" fill="rgba(255,255,255,0.4)" />
</svg>
