<svg xmlns="http://www.w3.org/2000/svg" viewBox="0 0 160 160" role="img" aria-labelledby="title">
  <title id="title">Strawberry illustration</title>
  <defs>
    <linearGradient id="berryGradient" x1="0%" x2="100%" y1="0%" y2="100%">
      <stop offset="0%" stop-color="#ff9eb8" />
      <stop offset="100%" stop-color="#ff5277" />
    </linearGradient>
  </defs>
  <rect width="160" height="160" rx="32" fill="#1a1c29" />
  <path d="M80 32c-12 0-20 8-24 16-6 10-16 14-16 28 0 30 26 52 40 52s40-22 40-52c0-14-10-18-16-28-4-8-12-16-24-16z" fill="url(#berryGradient)" stroke="#ff6f91" stroke-width="6" stroke-linejoin="round" />
  <path d="M64 28c8-6 16-6 24 0" fill="none" stroke="#7fd46b" stroke-width="6" stroke-linecap="round" />
  <path d="M80 32c6-8 12-12 20-12" fill="none" stroke="#6abf5a" stroke-width="6" stroke-linecap="round" />
  <circle cx="66" cy="76" r="4" fill="#ffe0ea" />
  <circle cx="80" cy="88" r="4" fill="#ffe0ea" />
  <circle cx="94" cy="72" r="4" fill="#ffe0ea" />
  <circle cx="74" cy="104" r="4" fill="#ffe0ea" />
  <circle cx="98" cy="108" r="4" fill="#ffe0ea" />
</svg>
