<svg xmlns="http://www.w3.org/2000/svg" viewBox="0 0 160 64" role="img" aria-labelledby="title desc">
  <title id="title">Flogas partner logo</title>
  <desc id="desc">Rounded dual lozenge logo showing the word Flogas across magenta and teal panels.</desc>
  <defs>
    <linearGradient id="panel-left" x1="0%" y1="0%" x2="100%" y2="0%">
      <stop offset="0%" stop-color="#f72585" />
      <stop offset="100%" stop-color="#d61f75" />
    </linearGradient>
    <linearGradient id="panel-right" x1="0%" y1="0%" x2="100%" y2="0%">
      <stop offset="0%" stop-color="#38bdf8" />
      <stop offset="100%" stop-color="#0ea5e9" />
    </linearGradient>
  </defs>
  <g fill="none" fill-rule="evenodd">
    <rect x="4" y="6" width="90" height="52" rx="26" fill="url(#panel-left)" />
    <rect x="66" y="6" width="90" height="52" rx="26" fill="url(#panel-right)" />
    <path d="M42.9 21.5c5.8 0 9.6 3.5 9.6 8.9 0 6-4 9.9-9.8 9.9h-8V21.5zm-4.1 5h-3.5v9h3.4c2.9 0 4.8-1.9 4.8-4.5 0-2.7-1.9-4.5-4.7-4.5zm15-5h6.4c5.5 0 8.9 2.7 8.9 7.4 0 4.8-3.6 7.6-9.3 7.6h-6zm6.3 11.6c2.6 0 4.3-1.3 4.3-3.9 0-2.4-1.5-3.7-3.9-3.7h-1.7v7.6zm17.7-11.6h5l7.1 18.8h-5.7l-1-2.9h-6.9l-1 2.9H70zm3.1 11.5h4.2l-2.1-6.1zm15.3-11.5h12.5v4.7h-7.5v2.2h6.4V38h-6.4v2.4h7.7v4.6h-12.7zm25.6 0c6 0 10.1 4 10.1 9.7 0 6-4.1 9.9-10.3 9.9-6 0-10.1-4-10.1-9.8 0-6 4.2-9.8 10.3-9.8zm0 14.8c2.7 0 4.6-2 4.6-4.9 0-3-1.9-5-4.7-5-2.8 0-4.7 2-4.7 5 0 3 1.9 4.9 4.8 4.9z" fill="#fff" />
  </g>
</svg>
